# xmcd CD database file
#
# Track frame offsets:
#	150
#	12352
#	20555
#	32189
#	45685
#	57485
#	67274
#	78178
#	92477
#	105608
#	116419
#	128215
#	139611
#	153873
#
# Disc length: 2072 seconds
#
# Revision: 0
# Processed by: cddbd v1.5.2PL0 Copyright (c) Steve Scherf et al.
# Submitted via: CDex 1.70beta1
#
DISCID=b508160e
DTITLE=George Chisholm - Merry Christmas Party
DYEAR=1900
DGENRE=Jazz
TTITLE0=Jingle Bells
TTITLE1=Snowballs
TTITLE2=Rudolf The Red Nosed Reindeer
TTITLE3=Have Yourself A Merry Little Christmas
TTITLE4=Does Santa Sleep With His Whiskers
TTITLE5=Frosty The Snowman
TTITLE6=Winter Wonderland
TTITLE7=The Christmas Song
TTITLE8=I Saw Mommy Kissing Santa Claus
TTITLE9=Let It Snow, Let It Snow, Let It Snow
TTITLE10=All I Want For Christmas Is My Two Front Teeth
TTITLE11=Santa Claus Is Coming To Town
TTITLE12=White Christmas
TTITLE13=Finale
EXTD=
EXTT0=
EXTT1=
EXTT2=
EXTT3=
EXTT4=
EXTT5=
EXTT6=
EXTT7=
EXTT8=
EXTT9=
EXTT10=
EXTT11=
EXTT12=
EXTT13=
PLAYORDER=
